<?xml version="1.0" encoding="utf-8"?>
<!-- Generator: Adobe Illustrator 16.0.0, SVG Export Plug-In . SVG Version: 6.00 Build 0)  -->
<!DOCTYPE svg PUBLIC "-//W3C//DTD SVG 1.1//EN" "http://www.w3.org/Graphics/SVG/1.1/DTD/svg11.dtd">
<svg version="1.1" id="Capa_1" xmlns="http://www.w3.org/2000/svg" xmlns:xlink="http://www.w3.org/1999/xlink" x="0px" y="0px"
	 width="32.667px" height="32.667px" viewBox="0 0 32.667 32.667" enable-background="new 0 0 32.667 32.667" xml:space="preserve">
<g>
	<path fill="#43BEFA" d="M16.333,0C7.327,0,0,7.327,0,16.334c0,9.005,7.326,16.333,16.333,16.333c0.557,0,1.006-0.451,1.006-1.006
		c0-0.557-0.449-1.008-1.006-1.008c-7.896,0-14.318-6.424-14.318-14.319c0-7.896,6.422-14.32,14.318-14.32S30.65,8.439,30.65,16.335
		c0,3.299-1.756,6.571-4.27,7.956c-0.912,0.502-1.902,0.75-2.959,0.76c0.635-0.377,1.184-0.887,1.592-1.53
		c0.08-0.121,0.186-0.226,0.238-0.358c0.328-0.789,0.356-1.685,0.555-2.517c0.242-1.065-4.658-3.144-5.084-1.815
		c-0.154,0.494-0.391,2.049-0.699,2.459c-0.275,0.364-0.953,0.192-1.377-0.168c-1.117-0.953-2.364-2.353-3.458-3.457l0.002-0.002
		c-0.028-0.029-0.062-0.062-0.092-0.091c-0.031-0.03-0.062-0.062-0.093-0.092l0,0c-1.106-1.093-2.506-2.338-3.457-3.458
		c-0.36-0.424-0.534-1.1-0.168-1.376c0.41-0.31,1.966-0.543,2.458-0.698c1.326-0.425-0.75-5.329-1.816-5.084
		c-0.832,0.195-1.727,0.225-2.516,0.552c-0.134,0.056-0.238,0.16-0.359,0.24c-2.799,1.775-3.16,6.083-0.428,9.292
		c1.041,1.229,2.127,2.416,3.245,3.576l-0.006,0.004c0.031,0.031,0.063,0.061,0.095,0.09c0.03,0.031,0.059,0.063,0.088,0.096
		l0.006-0.006c1.16,1.117,2.535,2.764,4.769,4.254c4.703,3.142,8.313,2.265,10.438,1.099c3.67-2.021,5.312-6.338,5.312-9.719
		C32.667,7.327,25.339,0,16.333,0z"/>
</g>
</svg>
