<svg xmlns="http://www.w3.org/2000/svg" viewBox="0 0 642.1 79.5" enable-background="new 0 0 642.1 79.5"><g fill="#fff"><path d="M145.6 60.6c-11.4 0-25.3-.5-25.3-17.8v-1.2H142v7.8h4.1V42c-3.6-1.3-7.7-2.4-11.9-3.8-6.7-2.3-13-5.3-13.2-14.6-.3-12.3 8.6-17.3 23.2-17.3 19.1 0 23.4 7.2 23.4 15.8v2h-21.5v-6.5H142v6.5c2.7.8 6.7 2 11.2 3.3 7.7 2.2 15.4 5.4 15.4 15.4 0 13.6-9.9 17.8-23 17.8zM214.6 53.8c-2.2 4-6.1 6.5-11.7 6.5-5.3 0-8.8-1.7-10.8-4.4v16.8h-19.9V19.6h19.7v4.2c1.6-2.6 5.1-5 11.2-4.9 3.9 0 6.7 1.2 9 3.3 3.7 3.5 4.5 8.5 4.5 17 .1 6-.1 11.1-2 14.6zm-18.3-23.2h-4.2V48h4.2V30.6zM256.7 57.6c-4.9 2.5-10.4 2.7-14.7 2.7-18.1 0-22.3-8.3-22.3-21 0-14.2 6.1-21.1 23.1-21.1 10.2 0 16.2 2.6 19.6 7.9 1.3 2.2 2.5 5.2 2.5 12.3v2.9h-24.7v9.2h4.2v-5.2h20.4c.1 5.3-3.4 10-8.1 12.3zm-12.3-30.5h-4.2v7.5h4.2v-7.5zM304.9 57.6c-4.9 2.5-10.4 2.7-14.7 2.7-18.1 0-22.3-8.3-22.3-21 0-14.2 6.1-21.1 23.1-21.1 10.2 0 16.2 2.6 19.6 7.9 1.3 2.2 2.5 5.2 2.5 12.3v2.9h-24.6v9.2h4.2v-5.2H313c0 5.3-3.5 10-8.1 12.3zm-12.3-30.5h-4.2v7.5h4.2v-7.5zM340.3 59.1v-3.7c-2.2 2.5-5.7 4.6-10.9 4.6-3.2 0-6.2-.6-8.9-3.2-3.7-3.6-4.3-10.1-4.4-16.5-.1-7.6.6-12.7 2.7-16 2.5-3.9 6.1-5.5 10.9-5.5 5 0 8.3 1.5 10.7 4v-15h20v51.4h-20.1zm0-28.5h-4.2v17.2h4.2V30.6zM412.1 60.6c-8.7 0-13.9-2.1-17.6-5.5-4.8-4.4-5.5-11.8-5.5-21.7 0-21.1 5.1-27.2 23.9-27.2 18.8 0 23.9 6.2 23.9 27.2 0 5.2-.3 12.3-2 16.3h4.6v10.9h-27.3zm2.7-42.6h-4.1v31.7h4.1V18zM465.7 59.1v-3.9c-2.9 2.9-6.7 4.9-11.8 4.7-4.8-.1-8.7-2.5-10.5-5.7-1-1.7-2-4.5-2-9.5V19.6h20.2v28.3h4.2V19.6h20v39.6h-20.1zM525.8 57.6c-4.9 2.5-10.4 2.7-14.7 2.7-18.1 0-22.3-8.3-22.3-21 0-14.2 6.1-21.1 23.1-21.1 10.2 0 16.2 2.6 19.6 7.9 1.3 2.2 2.5 5.2 2.5 12.3v2.9h-24.7v9.2h4.2v-5.2H534c0 5.3-3.5 10-8.2 12.3zm-12.2-30.5h-4.2v7.5h4.2v-7.5zM574 57.6c-4.9 2.5-10.4 2.7-14.7 2.7-18.1 0-22.3-8.3-22.3-21 0-14.2 6.1-21.1 23.1-21.1 10.2 0 16.2 2.6 19.6 7.9 1.3 2.2 2.5 5.2 2.5 12.3v2.9h-24.7v9.2h4.2v-5.2h20.4c.1 5.3-3.4 10-8.1 12.3zm-12.2-30.5h-4.2v7.5h4.2v-7.5zM609.6 59.1V30.6h-4.2v28.5h-19.9V19.6h19.3v3.8c1.6-2.2 5.5-5.1 11.9-5.1 8.4-.1 13.1 5.4 13.1 13.5v27.3h-20.2z"/></g><path fill="#fff" d="M633.3 54.8c0-2.5 2-4.3 4.4-4.3 2.4 0 4.4 1.8 4.4 4.3s-2 4.3-4.4 4.3c-2.4.1-4.4-1.8-4.4-4.3zm4.4 3.7c2 0 3.5-1.5 3.5-3.6s-1.5-3.6-3.5-3.6-3.5 1.5-3.5 3.6c0 2 1.5 3.6 3.5 3.6zm-.9-1.2h-.8v-5h1.9c1.2 0 1.8.4 1.8 1.4 0 .9-.6 1.3-1.3 1.4l1.4 2.2h-.8l-1.3-2.2h-.9v2.2zm.9-2.8c.6 0 1.2 0 1.2-.8 0-.6-.6-.7-1.1-.7h-1v1.5h.9z"/><g fill="#ef4923"><path d="M43.1 24.4h-.4c-1.4.2-2.4 1.4-2.4 2.8 0 1.6 1.3 2.8 2.8 2.8.5 0 1-.2 1.4-.4.2-.1.4-.3.5-.4.5-.5.8-1.2.8-2 .1-1.6-1.2-2.8-2.7-2.8zM34.1 24.7c-.1 0-.1-.1-.1-.1s-.1 0-.1-.1h-.1c-.1 0-.1-.1-.2-.1-.2 0-.3-.1-.5-.1h-.3c-1.5 0-2.8 1.3-2.8 2.8 0 .2 0 .4.1.6.3 1.3 1.4 2.2 2.7 2.2 1.1 0 2-.6 2.5-1.5.2-.4.3-.9.3-1.4 0-.9-.6-1.8-1.5-2.3zM53.3 24.4H53c-1.1.1-2 .9-2.4 2-.1.3-.1.5-.1.8 0 1.6 1.3 2.8 2.8 2.8h.4c1.1-.2 2.1-1 2.3-2.1.1-.2.1-.5.1-.7 0-1.6-1.3-2.8-2.8-2.8zM72.2 63.8c14-6 23.4-17 23.4-29.5C95.6 15.4 74.1 0 47.8 0 21.5 0 0 15.4 0 34.3s21.5 34.3 47.8 34.3c.7 0 1.5 0 2.3-.1 1.2 0 1.3 0 1.8 1.1.6 1.1 1.2 2.5 1.6 3.2 1 2 3 6.5 9.8 6.6 5.1-.1 10.1-.1 15.3-.1.7 0 1.1-.4 1.1-.8 0-.2-.1-.4-.2-.5-1.6-1.2-3.1-2.6-3.9-4.3-1-2.1-2.6-5.3-3.8-7.9-.3-.5-.4-.8-.4-1.1 0-.4.2-.7.8-.9zM67 54.5c-.1-.1-.1-.1 0 0-.1-.1-.1-.2-.2-.3-.1-.2-.2-.4-.3-.5-3.1-6.7-6.5-13.3-9.5-20-.1-.3-.2-.5-.4-.5h-1.9l.1.1c.2.3.3.7.5 1 .2.5.4.9.7 1.3.2.6.4 1.1.5 1.6.1.3.1.6.1.8 0 1.2-.5 2-1.2 2.4-.4.2-.8.3-1.2.3-.3 0-.5 0-.8-.1-1-.3-2.2-1-3.3-2.4-.6-.7-.9-1.2-1.5-2.1-.3-.5-.7-1.1-1-1.7-.2-.3-.3-.6-.5-.9-.2-.3-.3-.6-.8-.6h-1.5l.1.2c.1.3.2.5.4.8.2.5.5 1 .8 1.5.5 1.2.8 2.2.8 3 0 1.8-1.2 2.7-2.8 2.7-1.2 0-2.7-.6-3.8-1.6-.4-.4-.7-.8-1-1.3-.2-.3-.3-.5-.5-.8-.4-.7-.8-1.3-1.1-2-.3-.6-.7-1.2-1-1.8-.3-.5-.7-.6-1.1-.6-.3 0-.6.1-1 .1h-.2l.1.1c3.4 7 6.9 14 10.3 21 .8 1.7 1.7 3.4 2.5 5.1.2.3.2.6.2.8 0 .1 0 .2-.1.2-.1.1-.3.2-.6.2h-.1c-3.5-.1-6.9-.6-10-1.5-12.4-3.7-21.3-13.5-21.2-25 0-14.6 14.4-26.5 32.1-26.5 17.7 0 32.1 12 32.1 26.5 0 2.4-.4 4.8-1.1 7-2 5.5-5.5 10-10.6 13.4-.2.2-.4.3-.6.3-.2 0-.3-.1-.4-.2zM83.1 79.3v-4.6h-1V74h2.7v.7h-1v4.6h-.7zM85.4 79.3V74h1.1l1.5 4.1 1.5-4.1h1.1v5.3H90l.1-4.6-1.7 4.6h-.5L86 74.7l.1 4.6h-.7z"/></g></svg>